<?xml version="1.0" standalone="no"?>
<!DOCTYPE svg PUBLIC "-//W3C//DTD SVG 20010904//EN"
 "http://www.w3.org/TR/2001/REC-SVG-20010904/DTD/svg10.dtd">
<svg version="1.0" xmlns="http://www.w3.org/2000/svg"
 width="241.000000pt" height="254.000000pt" viewBox="0 0 241.000000 254.000000"
 preserveAspectRatio="xMidYMid meet">

<g transform="translate(0.000000,254.000000) scale(0.100000,-0.100000)"
fill="#000000" stroke="none">
<path d="M0 2353 c0 -145 3 -184 12 -175 19 19 41 15 104 -19 56 -29 63 -31
154 -27 67 3 105 10 130 23 l35 18 -70 22 c-38 12 -88 33 -110 47 -40 25 -105
91 -105 106 0 4 9 34 19 67 10 33 21 75 24 93 l7 32 -100 0 -100 0 0 -187z"/>
<path d="M227 2463 c-10 -43 -20 -88 -23 -99 -14 -51 109 -140 225 -165 28 -6
51 -15 51 -20 0 -17 -106 -69 -174 -84 -82 -19 -141 -13 -209 22 -46 23 -48
23 -72 6 l-24 -18 0 -455 c0 -250 4 -443 8 -429 14 45 33 72 100 147 45 50 71
72 83 69 21 -6 55 40 40 55 -6 6 -7 22 0 45 6 23 6 51 -1 84 -16 74 -12 93 5
24 9 -33 13 -75 10 -93 -3 -18 -1 -30 4 -27 17 11 22 74 10 143 -15 93 -3 139
57 203 25 27 41 49 36 49 -24 0 -92 -62 -111 -101 -12 -24 -22 -37 -22 -28 0
9 11 32 24 51 13 20 29 51 35 70 6 19 28 50 49 69 32 29 33 30 11 4 -26 -30
-49 -67 -49 -81 0 -4 9 5 21 20 33 43 66 54 162 55 97 1 126 11 191 67 22 19
54 37 73 40 50 9 55 28 6 22 -22 -3 -70 -24 -107 -46 -68 -41 -158 -64 -177
-45 -17 17 20 36 75 38 29 1 61 8 72 14 18 12 17 12 -4 7 -38 -8 -20 16 38 52
48 28 51 32 27 32 -17 0 -43 -14 -69 -37 -35 -31 -40 -33 -26 -12 11 18 13 30
7 36 -18 18 54 74 94 73 7 0 -7 -9 -29 -19 -48 -22 -72 -48 -33 -37 82 24 145
29 194 13 l50 -15 -53 -1 c-51 -1 -92 -14 -92 -29 0 -4 27 -5 59 -4 43 3 72
-2 105 -17 54 -23 59 -13 14 24 l-33 27 40 -22 c22 -13 51 -34 66 -47 30 -27
44 -30 35 -6 -6 14 -3 14 16 -3 26 -24 58 -37 58 -25 0 4 -11 13 -24 19 -19 8
-30 27 -45 79 -31 106 -37 175 -17 226 27 71 55 91 134 93 l67 3 -63 -8 c-79
-10 -116 -42 -130 -110 -10 -50 -5 -124 9 -116 4 3 5 27 2 53 -13 114 72 187
176 151 17 -6 31 -15 31 -20 0 -14 -28 -11 -32 4 -3 7 -23 12 -51 12 -142 0
-156 -207 -18 -270 23 -10 39 -20 37 -22 -7 -7 -80 27 -103 49 -13 12 -23 17
-23 12 1 -22 39 -55 92 -78 31 -14 59 -30 63 -35 13 -23 22 -9 28 43 3 29 15
71 27 92 21 39 20 35 -7 -40 -8 -22 -12 -53 -11 -70 4 -33 5 -32 32 45 25 71
75 139 124 170 50 32 140 48 175 31 20 -10 18 -11 -16 -11 -62 -1 -134 -38
-166 -85 -33 -47 -51 -105 -50 -156 1 -33 2 -32 18 20 32 101 61 140 130 175
54 27 177 17 262 -22 73 -34 100 -58 41 -37 -44 16 -91 17 -112 4 -11 -7 -6
-10 20 -10 50 0 102 -16 144 -45 42 -29 54 -32 36 -10 -7 9 -11 18 -8 20 13
14 113 -106 147 -177 21 -43 41 -75 44 -71 4 3 7 -3 7 -15 0 -13 -6 -22 -15
-22 -11 0 -14 -7 -9 -24 4 -17 1 -27 -11 -34 -16 -8 -12 -16 28 -66 30 -36 53
-78 65 -118 11 -34 22 -55 25 -47 3 8 6 1 6 -15 1 -17 11 -41 24 -55 12 -14
-5 -1 -38 29 -50 45 -179 135 -235 164 -8 4 13 -18 47 -50 53 -51 93 -106 93
-130 0 -4 -18 13 -41 37 -40 44 -43 39 -7 -13 10 -15 31 -69 47 -120 31 -106
43 -130 81 -174 30 -35 67 -121 56 -131 -10 -10 -104 85 -133 135 -38 64 -22
60 32 -8 26 -34 49 -59 52 -56 3 2 -25 50 -61 106 -36 56 -77 133 -91 171 -15
38 -32 72 -37 75 -7 5 -9 0 -6 -12 12 -40 59 -211 69 -248 8 -28 36 -64 100
-131 49 -50 89 -97 89 -104 0 -7 4 -10 9 -7 18 12 107 -119 139 -207 40 -105
22 -263 -39 -364 -21 -34 -21 -36 -4 -23 11 7 26 21 33 29 6 8 12 10 12 5 0
-18 -50 -58 -76 -61 -22 -3 -24 -2 -15 16 18 33 12 36 -16 8 -32 -30 -91 -57
-125 -57 -14 0 -37 -15 -57 -35 -36 -38 -58 -47 -41 -16 13 25 13 34 0 26 -27
-17 3 60 36 94 30 30 57 78 52 93 -2 5 -15 -7 -28 -28 -41 -62 -72 -79 -145
-79 -56 0 -62 -1 -42 -12 12 -7 39 -12 61 -13 34 0 37 -2 25 -16 -29 -35 -140
6 -147 55 -3 19 -1 20 22 11 39 -14 31 2 -14 31 l-39 26 23 22 24 22 16 -22
c13 -19 16 -20 16 -6 0 9 6 17 14 17 17 0 59 -67 51 -81 -9 -13 19 -11 33 3
14 14 16 32 2 23 -13 -8 -40 36 -47 79 -4 28 -3 36 8 34 8 -2 17 -12 21 -23 3
-11 6 24 7 77 1 53 5 100 11 103 15 9 24 -44 11 -71 -13 -30 -14 -34 -3 -34 5
0 14 10 20 23 10 22 11 22 11 -5 1 -48 21 -31 21 18 0 27 4 43 10 39 6 -3 10
-27 10 -53 0 -34 3 -43 10 -32 15 24 12 93 -7 120 -9 14 -37 47 -61 75 -24 27
-57 72 -73 100 -30 53 -40 47 -14 -8 35 -72 -75 68 -116 148 -23 45 -38 67
-35 50 4 -16 24 -66 47 -110 32 -65 35 -74 14 -50 -27 32 -25 11 3 -33 8 -12
16 -44 18 -70 2 -35 9 -52 27 -67 21 -17 23 -24 14 -50 -11 -35 -65 -95 -85
-95 -11 0 -13 7 -7 28 3 15 9 42 12 60 6 35 12 39 32 20 12 -11 13 -9 6 7 -4
11 -10 43 -14 70 -7 46 -11 47 -24 5 -2 -8 -8 18 -12 57 -7 70 -25 93 -25 32
0 -16 -4 -29 -9 -29 -9 0 -51 -64 -51 -77 0 -3 9 2 20 12 25 23 25 14 -1 -36
-11 -23 -19 -43 -16 -45 9 -9 41 39 59 88 18 50 19 51 13 13 -4 -22 -15 -55
-26 -74 -16 -27 -17 -36 -7 -42 10 -6 2 -19 -29 -46 -39 -35 -91 -128 -78
-141 6 -6 3 -10 44 56 18 28 39 52 47 52 22 0 35 -35 24 -65 -15 -39 -13 -39
21 -11 17 14 35 26 40 26 14 0 -7 -35 -34 -57 -13 -10 -34 -38 -48 -63 -15
-28 -35 -48 -53 -55 -25 -9 -31 -6 -51 19 l-23 29 -17 -34 c-18 -36 -83 -109
-98 -109 -4 0 -6 10 -2 23 6 21 5 21 -9 3 -9 -10 -13 -23 -10 -27 5 -9 -43
-42 -115 -79 l-45 -22 19 28 c59 90 97 155 93 159 -2 3 -26 -25 -53 -61 -58
-79 -129 -152 -188 -192 -44 -31 -117 -65 -117 -55 0 3 13 22 28 42 38 49 80
123 97 171 21 60 4 41 -50 -55 -27 -47 -71 -110 -99 -141 -44 -47 -63 -59
-131 -83 -44 -16 -100 -36 -124 -45 -50 -19 -81 -15 -158 21 -66 31 -76 43
-113 133 -43 103 -57 169 -64 290 -13 218 -29 354 -39 329 -9 -25 -4 -108 12
-194 12 -64 14 -246 2 -225 -5 8 -23 76 -40 151 -49 216 -42 319 37 565 17 50
39 109 51 132 13 25 17 42 10 42 -6 0 -9 6 -6 14 3 8 1 16 -4 18 -6 2 -1 22
11 48 15 34 19 38 15 16 -6 -26 -4 -28 9 -17 14 12 16 9 16 -25 1 -35 2 -37
14 -21 13 16 14 16 20 -8 4 -14 11 -25 16 -25 6 0 8 10 5 23 -3 12 -1 28 4 36
7 11 16 10 53 -8 24 -11 55 -21 69 -20 20 0 17 4 -17 19 -23 10 -48 28 -57 40
-15 21 -16 21 -41 5 -14 -10 -26 -21 -26 -26 0 -5 -4 -9 -9 -9 -5 0 -11 17
-13 38 -8 61 85 254 113 236 5 -3 19 2 33 11 26 17 111 18 134 2 8 -6 12 -5
12 3 0 8 9 11 25 8 34 -7 32 12 -6 48 -26 25 -37 29 -85 28 -32 -1 -54 3 -54
9 0 6 -12 0 -27 -13 l-28 -24 27 28 c20 22 43 32 90 42 l63 12 -63 1 c-35 1
-72 -4 -83 -9 -13 -8 -19 -7 -19 0 0 13 83 66 127 81 52 17 33 21 -21 5 -67
-20 -43 7 26 30 40 13 72 15 147 11 53 -3 107 -9 121 -11 14 -3 0 3 -30 14
-33 11 -86 19 -130 20 l-75 2 44 14 c62 19 65 28 6 20 -27 -4 -76 -20 -108
-36 -31 -16 -54 -24 -51 -18 4 6 34 24 68 40 38 18 51 27 34 25 -39 -6 -35 5
17 42 25 18 45 34 45 37 0 12 -27 -2 -107 -55 -144 -96 -165 -105 -266 -108
-124 -4 -179 -34 -202 -113 -5 -19 -1 -16 20 13 27 39 94 78 124 72 9 -2 39
-4 66 -5 63 -1 44 -14 -45 -30 -70 -12 -103 -29 -120 -59 -5 -11 -19 -66 -30
-123 -25 -133 -53 -205 -95 -251 -37 -40 -51 -47 -41 -19 7 18 -21 -11 -97
-103 -26 -31 -47 -62 -47 -69 0 -6 13 4 28 22 33 40 52 41 52 3 0 -16 6 -34
14 -40 12 -10 13 -7 4 23 -16 51 -1 77 72 126 77 52 89 78 125 268 29 149 48
192 88 192 20 0 20 -1 -6 -27 -40 -43 -58 -99 -68 -212 -7 -76 -16 -120 -34
-159 -19 -41 -21 -51 -8 -41 30 26 52 95 62 197 11 114 36 180 79 210 47 32
202 111 202 103 0 -5 -6 -14 -14 -20 -7 -6 -21 -33 -31 -59 -10 -26 -28 -66
-41 -89 -16 -28 -20 -43 -12 -45 19 -7 1 -37 -33 -56 -18 -9 -43 -27 -58 -40
l-26 -23 33 16 c19 9 36 14 39 12 2 -3 -14 -40 -36 -83 -22 -44 -40 -70 -40
-59 -1 11 6 32 13 48 15 28 9 36 -12 15 -20 -20 -14 31 8 81 16 35 17 42 5 37
-33 -12 -11 22 53 82 64 62 65 63 19 32 -27 -17 -51 -29 -55 -25 -7 6 34 47
109 108 42 35 21 25 -51 -24 -90 -60 -119 -114 -140 -264 -20 -137 -61 -212
-135 -253 -16 -9 -17 -11 -3 -12 21 0 76 46 99 85 16 25 19 26 19 10 0 -11 -6
-29 -14 -40 -7 -11 -18 -36 -25 -56 -18 -55 -62 -91 -128 -105 l-58 -12 43 -1
c24 -1 57 6 73 15 39 20 45 14 24 -26 -9 -18 -19 -29 -22 -26 -3 3 0 13 8 22
13 16 11 16 -26 9 -70 -15 -165 0 -165 25 0 5 14 10 30 10 17 0 30 2 30 3 0
12 -33 67 -40 67 -5 0 -19 -19 -33 -42 -13 -24 -29 -42 -35 -41 -9 2 -12 -140
-12 -587 l0 -590 940 0 941 0 -3 210 -3 210 30 0 c27 0 28 -1 13 -17 -16 -15
-15 -17 8 -35 31 -25 73 -17 122 25 l37 31 -36 -38 c-27 -28 -47 -39 -77 -43
l-42 -6 0 -168 0 -169 240 0 240 0 0 1270 0 1270 -240 0 -240 0 0 -174 c0 -96
4 -176 8 -178 10 -4 72 -112 72 -124 0 -5 -12 11 -26 36 -15 25 -52 71 -83
103 -31 32 -48 55 -38 51 16 -6 17 5 17 140 l0 146 -818 0 -818 0 -17 -77z
m1036 23 c88 -42 72 -60 -28 -31 l-50 15 50 -5 50 -6 -45 22 c-29 14 -72 23
-120 26 -67 4 -79 2 -110 -19 -50 -34 -76 -111 -63 -190 5 -32 8 -58 6 -58 -2
0 -33 23 -68 51 -42 33 -67 60 -71 77 -11 52 -18 57 -22 17 -4 -39 -1 -42 81
-120 79 -74 127 -139 113 -153 -3 -3 -6 0 -6 6 0 27 -73 91 -120 107 -29 10
-58 28 -69 43 -12 16 -20 21 -21 13 0 -8 7 -23 17 -33 9 -10 12 -18 6 -18 -14
0 -39 31 -47 56 -4 12 -2 34 4 49 10 25 9 27 -6 15 -16 -14 -16 -75 0 -112 5
-10 4 -18 -1 -18 -6 0 -15 17 -21 38 -14 47 0 105 30 126 11 8 26 25 32 37 17
33 30 25 38 -23 5 -30 17 -52 39 -71 37 -33 43 -31 27 9 -26 71 25 162 94 168
21 1 41 6 45 10 5 4 46 6 93 3 65 -3 99 -11 143 -31z m-143 -76 c-8 -6 -24
-15 -35 -21 -16 -8 -15 -6 4 10 13 12 28 21 35 21 6 0 4 -5 -4 -10z m437 -15
c21 -9 67 -23 104 -31 41 -9 74 -23 85 -36 14 -15 15 -19 4 -15 -8 3 -46 15
-85 27 -38 12 -82 28 -97 36 -66 36 -154 27 -230 -22 -21 -13 -51 -24 -67 -24
-42 0 -77 -18 -90 -47 -14 -30 -14 -63 -1 -63 6 0 10 7 10 16 0 22 55 74 77
73 16 0 16 -1 -2 -9 -30 -12 -61 -50 -76 -92 -15 -43 -14 -43 -54 -20 -23 13
-30 25 -32 52 -1 19 1 29 4 22 3 -8 11 -1 22 20 9 18 30 39 46 48 17 8 32 16
35 18 2 2 -2 7 -10 12 -26 17 11 12 44 -5 34 -18 62 -19 72 -4 3 6 30 22 58
35 60 28 130 31 183 9z m449 -52 c-10 -10 -19 5 -10 18 6 11 8 11 12 0 2 -7 1
-15 -2 -18z m-874 1 c-12 -8 -22 -23 -23 -32 0 -11 -2 -13 -6 -4 -6 14 24 52
41 52 6 0 0 -7 -12 -16z m-77 -26 c-4 -23 0 -45 13 -70 11 -21 15 -35 10 -32
-19 12 -39 76 -33 105 9 40 17 37 10 -3z m760 -33 l30 -25 -37 21 c-21 11 -38
23 -38 25 0 10 17 2 45 -21z m161 -43 c-12 -11 -18 7 -10 30 l8 23 4 -23 c2
-13 1 -26 -2 -30z m-1080 -58 c18 -14 18 -14 -6 -3 -31 14 -36 19 -24 19 6 0
19 -7 30 -16z m-363 -111 c-13 -2 -33 -2 -45 0 -13 2 -3 4 22 4 25 0 35 -2 23
-4z m-90 -28 c-10 -13 -22 -25 -27 -25 -5 0 1 11 14 25 30 32 36 32 13 0z
m1584 -57 c-3 -7 -5 -2 -5 12 0 14 2 19 5 13 2 -7 2 -19 0 -25z m77 -209 c25
-42 16 -45 -12 -3 -12 19 -19 34 -14 34 4 0 16 -14 26 -31z m-1887 -56 c-3
-10 -5 -2 -5 17 0 19 2 27 5 18 2 -10 2 -26 0 -35z m1910 -30 c-3 -10 -5 -4
-5 12 0 17 2 24 5 18 2 -7 2 -21 0 -30z m-1499 5 c-2 -6 -10 -14 -16 -16 -7
-2 -10 2 -6 12 7 18 28 22 22 4z m1440 -119 c2 -23 2 -23 -13 -5 -18 24 -20
39 -2 34 6 -3 13 -15 15 -29z m32 -32 c0 -12 -5 -29 -10 -37 -7 -11 -10 -3
-10 28 0 26 4 41 10 37 6 -3 10 -16 10 -28z m-51 -52 l0 -20 -9 20 c-5 11 -9
27 -9 35 -1 13 0 13 9 0 5 -8 9 -24 9 -35z m142 28 c13 -16 12 -17 -3 -4 -10
7 -18 15 -18 17 0 8 8 3 21 -13z m-121 -72 c0 -5 21 -45 46 -90 52 -91 54
-115 5 -46 -50 69 -90 168 -61 150 6 -3 10 -10 10 -14z m180 -25 c0 -12 -5 -7
-19 24 -11 24 -11 24 3 6 9 -11 16 -24 16 -30z m-1 -78 c10 -30 9 -31 -4 -14
-8 11 -15 26 -15 33 0 22 8 14 19 -19z m50 -63 l0 -20 -8 20 c-4 11 -11 34
-14 50 l-6 30 14 -30 c8 -16 14 -39 14 -50z m-99 0 c0 -5 -5 -3 -10 5 -5 8
-10 20 -10 25 0 6 5 3 10 -5 5 -8 10 -19 10 -25z m-1864 -74 c-17 -83 -45
-128 -92 -147 -50 -21 -69 -17 -110 19 -28 24 -35 27 -26 11 6 -12 25 -34 43
-48 17 -14 26 -26 21 -26 -19 0 -69 49 -82 80 -18 43 -3 51 28 15 16 -19 27
-25 30 -17 2 6 18 12 35 11 31 -1 31 -1 7 -9 -22 -7 -22 -8 -5 -10 11 -1 27
-1 35 0 21 2 68 49 76 74 17 55 46 127 50 123 3 -2 -2 -37 -10 -76z m1871 37
c-3 -8 -6 -5 -6 6 -1 11 2 17 5 13 3 -3 4 -12 1 -19z m95 -7 c7 11 8 9 6 -6
-4 -24 -22 -23 -25 2 -2 11 0 13 3 4 5 -11 8 -11 16 0z m-85 -83 c8 -9 9 -19
2 -28 -8 -13 -12 -12 -24 4 -8 11 -15 29 -15 40 0 12 -3 32 -5 46 -4 18 0 15
13 -11 10 -20 23 -43 29 -51z m74 -123 c7 -11 -5 -2 -24 20 -20 22 -36 45 -37
50 0 11 45 -40 61 -70z m-2031 -20 c0 -8 -81 -44 -97 -45 -7 0 -13 5 -13 10 0
6 8 10 18 10 10 0 27 7 38 15 19 14 54 20 54 10z m14 -46 c-3 -6 -20 -19 -38
-30 -27 -17 -28 -19 -9 -19 12 0 25 5 28 10 3 6 12 10 19 10 10 0 12 -22 8
-99 -3 -71 0 -120 13 -176 20 -93 14 -109 -9 -24 -24 83 -29 153 -18 221 l9
56 -54 -5 c-60 -6 -70 6 -20 26 l32 13 -25 8 c-26 7 -23 8 58 18 7 1 10 -3 6
-9z m1666 -85 c0 -22 -16 -51 -63 -112 -41 -54 -65 -66 -30 -15 11 15 32 54
46 86 25 55 47 74 47 41z m449 -39 l0 -20 -9 20 c-5 11 -9 27 -9 35 -1 13 0
13 9 0 5 -8 9 -24 9 -35z m8 -107 c-2 -18 -4 -6 -4 27 0 33 2 48 4 33 2 -15 2
-42 0 -60z m-10 -60 c-3 -8 -6 -5 -6 6 -1 11 2 17 5 13 3 -3 4 -12 1 -19z
m-10 -40 c-3 -8 -6 -5 -6 6 -1 11 2 17 5 13 3 -3 4 -12 1 -19z m-36 -71 c-10
-9 -11 -8 -5 6 3 10 9 15 12 12 3 -3 0 -11 -7 -18z m-1944 -237 c17 -30 41
-80 53 -110 27 -69 80 -126 145 -155 81 -36 118 -39 191 -15 77 26 96 21 27
-6 -99 -39 -224 -15 -301 59 -20 19 -59 83 -94 157 -68 141 -93 206 -102 271
-4 26 5 5 22 -51 15 -52 42 -120 59 -150z m1364 163 c8 -9 34 -29 58 -45 25
-15 39 -28 32 -28 -19 0 -53 19 -82 47 -25 23 -29 24 -50 10 -33 -21 -86 -31
-94 -18 -4 7 6 11 27 11 18 0 44 9 58 20 31 24 34 24 51 3z m-167 -48 c-4 -8
-11 -15 -16 -15 -6 0 -5 6 2 15 7 8 14 15 16 15 2 0 1 -7 -2 -15z m571 -10
c-16 -8 -39 -14 -50 -14 -11 0 -2 6 20 14 52 17 68 17 30 0z m-625 -40 c-7 -8
-18 -15 -24 -15 -6 0 -2 7 8 15 25 19 32 19 16 0z m-70 -45 c-14 -11 -29 -20
-35 -20 -5 0 4 9 20 20 38 25 48 25 15 0z m-115 -60 c-3 -5 -11 -10 -16 -10
-6 0 -7 5 -4 10 3 6 11 10 16 10 6 0 7 -4 4 -10z m-56 -24 c-10 -9 -89 -46
-89 -41 0 6 72 44 84 45 5 0 7 -2 5 -4z m-142 -72 c-27 -14 -51 -23 -54 -20
-6 6 75 46 92 45 6 0 -12 -11 -38 -25z m-110 -50 c-27 -14 -51 -23 -53 -21 -5
5 76 46 91 46 6 0 -12 -11 -38 -25z m-97 -43 c-19 -10 -46 -21 -60 -25 -14 -3
-2 5 25 19 57 28 88 34 35 6z"/>
<path d="M937 2470 c-34 -27 -50 -83 -37 -132 17 -60 28 -53 23 15 -4 55 -2
66 21 100 29 43 28 45 -7 17z"/>
<path d="M1470 2298 c-25 -13 -55 -38 -68 -57 -30 -45 -57 -140 -44 -153 6 -6
12 0 17 19 15 60 99 133 152 133 10 0 0 -9 -22 -19 -46 -21 -79 -54 -94 -94
-17 -44 -13 -55 7 -22 30 49 98 103 137 111 21 4 62 4 92 1 42 -4 53 -3 45 5
-7 7 -40 14 -74 17 -48 3 -57 6 -38 12 19 5 13 7 -25 8 -33 1 -63 -6 -89 -20
-48 -25 -56 -19 -19 15 39 37 96 50 161 39 60 -11 70 1 15 16 -59 17 -105 13
-153 -11z"/>
<path d="M1297 2237 c-26 -41 -41 -104 -30 -129 9 -20 11 -17 17 27 5 28 14
65 22 84 17 41 13 51 -9 18z"/>
<path d="M1550 2199 c-32 -13 -78 -56 -96 -91 -24 -46 -15 -53 15 -11 33 45
83 80 130 89 17 4 31 10 31 15 0 12 -48 10 -80 -2z"/>
<path d="M1661 2187 c-19 -8 -37 -19 -39 -25 -2 -7 -9 -12 -16 -12 -23 0 -86
-51 -102 -83 l-17 -32 40 36 c53 48 101 63 177 56 67 -6 59 5 -19 28 l-40 12
33 8 c51 11 118 -3 152 -31 38 -32 39 -48 3 -40 -25 6 -23 4 12 -20 22 -15 55
-41 73 -57 17 -17 32 -26 32 -21 0 6 -14 23 -31 40 -16 16 -38 47 -48 70 -29
66 -132 100 -210 71z"/>
<path d="M1030 2142 c0 -6 12 -24 26 -41 26 -31 66 -41 79 -21 3 6 -3 10 -14
10 -11 0 -36 14 -56 31 -19 17 -35 26 -35 21z"/>
<path d="M1635 2101 c-40 -10 -75 -29 -103 -55 l-24 -21 24 -6 c13 -3 43 1 68
8 48 14 107 10 173 -13 20 -7 37 -9 37 -4 0 11 -81 50 -103 50 -9 0 -17 4 -17
9 0 16 71 0 130 -28 30 -14 83 -53 117 -85 35 -32 67 -56 70 -52 13 12 -134
143 -189 169 -60 28 -137 40 -183 28z"/>
<path d="M1670 1981 c-35 -10 -14 -18 47 -20 29 0 67 -7 85 -16 l33 -15 -49 6
c-51 6 -58 -8 -9 -21 91 -22 178 -87 245 -180 40 -55 49 -64 44 -40 -15 63
-118 195 -152 195 -8 0 -19 11 -24 24 -17 45 -153 87 -220 67z"/>
<path d="M1760 1895 c0 -3 17 -12 37 -20 26 -11 34 -18 25 -24 -10 -6 -4 -12
20 -22 18 -7 50 -29 70 -47 42 -37 46 -36 23 8 -19 37 -70 75 -124 95 -48 17
-51 17 -51 10z"/>
<path d="M1470 1776 c75 -50 135 -112 175 -181 37 -62 45 -41 11 29 -31 64
-104 134 -174 170 -78 40 -84 31 -12 -18z"/>
<path d="M1407 1742 c11 -9 48 -39 82 -65 33 -27 79 -76 102 -110 33 -49 40
-56 35 -32 -15 63 -108 165 -188 206 -46 23 -60 24 -31 1z"/>
<path d="M1290 1716 c0 -3 35 -23 78 -45 74 -37 142 -97 142 -124 0 -6 -7 -2
-15 11 -18 24 -103 77 -111 69 -3 -3 12 -17 34 -31 76 -48 95 -88 108 -230 10
-112 29 -73 29 59 0 114 -18 164 -78 209 -45 35 -187 97 -187 82z"/>
<path d="M1175 1623 c-31 -4 -55 -26 -55 -51 0 -8 5 -10 12 -5 20 12 69 3 127
-24 30 -13 82 -27 115 -30 34 -3 69 -9 78 -14 25 -14 27 -11 15 20 -11 29 -53
61 -79 61 -8 0 -37 11 -64 25 -47 24 -78 28 -149 18z"/>
<path d="M626 1569 c-26 -20 -38 -57 -13 -43 9 6 8 3 -1 -8 -16 -20 -12 -70 6
-76 6 -2 12 3 12 12 0 21 31 36 72 36 l33 -1 -27 -15 c-20 -10 -28 -22 -28
-42 0 -59 58 -72 89 -21 17 28 20 29 25 11 4 -10 3 -27 -1 -37 -5 -15 -3 -17
11 -12 10 4 20 7 22 7 2 0 4 7 4 15 0 8 5 15 11 15 26 0 0 -47 -46 -82 -35
-27 -49 -44 -47 -59 3 -26 -40 -83 -85 -110 -24 -15 -31 -24 -22 -29 24 -16
-69 -130 -107 -130 -8 0 -14 -4 -14 -9 0 -5 -10 -11 -22 -13 -17 -2 -23 -10
-25 -31 -2 -24 0 -26 18 -17 14 8 19 7 19 -2 1 -17 40 30 40 47 0 19 27 26 34
9 3 -8 1 -14 -4 -14 -6 0 -10 -4 -10 -8 0 -4 16 -6 35 -4 41 5 44 13 13 35
-23 16 -23 16 -2 16 22 1 54 -27 54 -47 0 -7 5 -12 11 -12 6 0 9 -6 6 -12 -3
-10 19 -12 99 -10 60 2 118 -1 136 -7 41 -14 49 -5 18 21 -22 17 -33 19 -102
13 -77 -7 -78 -7 -107 23 -65 64 -55 129 33 215 35 34 73 82 86 107 13 25 33
59 45 75 30 40 37 73 24 118 -10 38 -48 67 -89 67 -26 0 -26 -18 0 -45 12 -12
23 -40 27 -61 5 -38 4 -38 -48 38 -29 42 -64 81 -76 87 -37 17 -78 13 -107
-10z m125 -40 c34 -24 40 -46 7 -25 -13 7 -36 17 -52 20 -23 6 -27 9 -15 17
20 13 28 11 60 -12z"/>
<path d="M1897 1453 c10 -98 60 -202 139 -288 49 -53 118 -154 111 -162 -3 -2
-18 9 -35 24 -16 15 -55 51 -85 80 -31 28 -70 76 -86 105 -37 64 -41 48 -6
-21 13 -27 56 -80 95 -118 94 -91 120 -125 146 -197 19 -50 23 -56 23 -31 1
43 -26 149 -48 193 -11 21 -50 76 -86 122 -75 94 -128 192 -150 277 -19 72
-24 76 -18 16z"/>
<path d="M1410 1483 c0 -5 9 -19 20 -33 18 -23 20 -24 20 -4 0 20 -17 44 -32
44 -4 0 -8 -3 -8 -7z"/>
<path d="M1855 1436 c-4 -26 -3 -52 4 -63 8 -14 10 -5 11 45 0 34 -2 62 -4 62
-3 0 -8 -20 -11 -44z"/>
<path d="M1460 1464 c0 -5 9 -20 20 -34 14 -18 20 -21 20 -9 0 9 -9 24 -20 34
-11 10 -20 14 -20 9z"/>
<path d="M1215 1430 c-29 -7 -29 -8 -7 -15 33 -11 27 -18 -28 -36 -50 -16 -60
-13 -38 9 9 9 8 12 -5 12 -30 0 -68 -24 -83 -52 -15 -29 -8 -37 15 -15 11 10
14 10 18 0 3 -7 11 -13 19 -13 8 0 11 -6 8 -15 -4 -8 -2 -15 4 -15 5 0 12 -14
16 -30 5 -26 15 -35 61 -56 30 -14 63 -24 73 -22 12 3 6 9 -21 21 -21 9 -51
26 -67 37 -36 26 -30 57 16 76 50 21 57 17 32 -16 -27 -37 -17 -60 31 -73 35
-9 61 4 61 29 0 8 5 14 10 14 6 0 10 -11 10 -25 0 -20 5 -25 25 -25 30 0 30 1
5 49 -21 42 -73 91 -96 91 -8 0 -14 5 -14 10 0 15 39 12 70 -7 15 -9 39 -35
52 -57 23 -41 23 -41 26 -13 5 39 -27 98 -63 118 -38 21 -91 29 -130 19z"/>
<path d="M1826 1374 c-9 -23 -7 -67 4 -84 7 -11 10 2 10 43 0 59 -3 69 -14 41z"/>
<path d="M494 1300 c-20 -8 -42 -30 -31 -30 10 0 77 31 77 35 0 7 -22 5 -46
-5z"/>
<path d="M615 1300 c3 -5 26 -10 50 -10 24 0 47 5 50 10 4 6 -15 10 -50 10
-35 0 -54 -4 -50 -10z"/>
<path d="M1787 1255 c5 -46 12 -66 34 -90 16 -16 29 -33 29 -36 0 -4 7 -9 14
-12 9 -4 1 21 -22 66 -21 40 -43 86 -49 102 -11 26 -11 23 -6 -30z"/>
<path d="M1100 1220 c11 -21 80 -71 174 -126 52 -30 58 -32 53 -14 l-5 21 33
-21 c43 -26 45 -26 32 10 -11 29 -14 30 -68 29 -50 -2 -63 2 -112 35 -30 20
-62 48 -71 61 -20 31 -52 35 -36 5z"/>
<path d="M1875 1180 c13 -43 65 -106 131 -159 60 -48 102 -96 93 -106 -3 -2
-37 23 -77 56 -40 33 -77 59 -83 57 -5 -2 24 -32 66 -67 72 -61 114 -122 116
-167 0 -14 3 -12 11 8 14 39 -7 128 -39 170 -15 18 -57 56 -93 85 -37 29 -82
74 -100 100 -20 30 -29 39 -25 23z"/>
<path d="M1716 1117 c-2 -6 -8 -34 -14 -62 -5 -27 -13 -61 -17 -75 -7 -25 -7
-25 8 -4 9 11 21 42 28 68 6 25 15 49 20 52 14 8 11 21 -6 28 -9 3 -17 0 -19
-7z"/>
<path d="M1009 1055 c0 -6 0 -34 1 -62 1 -44 -3 -57 -24 -78 -26 -26 -33 -45
-18 -45 14 0 42 -69 42 -103 1 -31 1 -31 16 -12 15 20 15 20 20 -2 4 -14 13
-20 30 -19 13 0 24 4 24 7 0 4 -20 29 -45 57 -24 27 -41 52 -37 56 3 4 0 11
-7 16 -11 6 -10 13 8 35 11 15 21 35 22 44 1 19 69 -117 69 -139 1 -17 39 -90
39 -75 1 16 -45 156 -68 208 -23 53 -71 127 -72 112z"/>
<path d="M1505 1030 c-3 -5 -1 -10 4 -10 6 0 11 5 11 10 0 6 -2 10 -4 10 -3 0
-8 -4 -11 -10z"/>
<path d="M2190 1027 c0 -4 15 -38 34 -75 21 -43 38 -97 46 -149 13 -79 12 -85
-11 -157 -26 -80 -22 -90 12 -24 46 91 41 208 -16 316 -25 49 -64 103 -65 89z"/>
<path d="M557 913 c-4 -3 -7 -13 -7 -22 1 -13 3 -13 11 2 11 19 8 33 -4 20z"/>
<path d="M594 908 c-10 -15 -12 -68 -3 -68 8 0 22 70 16 77 -3 2 -9 -2 -13 -9z"/>
<path d="M778 902 c-20 -4 -31 -32 -22 -56 5 -14 10 -12 26 14 22 36 21 47 -4
42z"/>
<path d="M824 896 c-10 -8 -16 -18 -12 -22 4 -4 15 -1 25 7 15 12 16 12 10 -3
-3 -10 -2 -18 2 -18 12 0 23 29 15 41 -7 13 -17 11 -40 -5z"/>
<path d="M447 876 c-19 -28 -12 -62 19 -93 12 -12 30 -43 40 -68 15 -41 16
-55 5 -123 -15 -97 -17 -161 -7 -237 7 -50 14 -65 46 -97 51 -51 82 -50 162 5
35 23 86 51 113 61 51 19 79 36 71 43 -2 2 -21 -3 -41 -11 -79 -34 -71 -16 30
60 41 31 75 58 75 60 0 2 -12 -1 -26 -7 -33 -12 -39 -7 -25 19 10 18 69 62 85
62 3 0 6 -11 6 -24 0 -19 4 -23 19 -19 19 5 37 43 20 43 -5 0 -7 11 -3 25 4
16 2 25 -5 25 -7 0 -4 11 6 27 10 15 12 24 6 20 -7 -5 -18 -3 -25 2 -49 40
-68 60 -68 75 0 14 -3 13 -20 -4 -16 -16 -24 -18 -41 -10 -11 6 -30 8 -42 4
-19 -6 -20 -5 -8 10 20 24 8 29 -20 7 -26 -20 -49 -13 -62 19 -4 13 -6 12 -6
-1 -2 -30 -30 -30 -49 -1 -10 17 -24 26 -34 24 -11 -2 -18 3 -18 12 0 9 -4 16
-10 16 -5 0 -10 -7 -10 -16 0 -14 -3 -14 -15 -4 -11 9 -15 9 -15 1 0 -7 -5 -9
-12 -4 -22 13 -38 12 -38 -4 0 -13 -3 -13 -16 -2 -11 9 -14 22 -9 47 4 23 3
32 -4 27 -10 -5 -15 7 -12 28 0 4 -6 7 -14 7 -8 0 -15 5 -15 10 0 18 -17 11
-33 -14z m221 -177 c15 -11 27 -24 27 -27 1 -4 5 -18 9 -31 7 -21 12 -23 46
-17 27 4 39 2 43 -8 5 -13 -17 -66 -32 -76 -5 -3 -21 -32 -36 -65 -16 -33 -36
-72 -47 -87 -22 -31 -22 -38 -4 -38 13 0 96 112 96 129 0 4 9 16 19 25 15 13
20 14 25 4 3 -7 3 -3 0 10 -3 12 -1 22 5 22 6 0 11 -9 11 -20 0 -11 4 -20 9
-20 5 0 7 8 4 18 -5 20 31 59 41 43 3 -5 1 -15 -6 -23 -7 -7 -20 -29 -29 -48
-23 -48 -131 -183 -167 -209 -58 -41 -111 -19 -131 56 -6 21 -11 76 -11 123 1
129 26 224 62 233 11 3 17 10 13 16 -11 19 26 12 53 -10z m202 -118 c0 -14
-29 -21 -36 -9 -4 7 -3 8 4 4 7 -4 12 -2 12 3 0 6 5 11 10 11 6 0 10 -4 10 -9z"/>
<path d="M632 868 c-14 -14 -16 -28 -3 -28 9 0 24 30 18 36 -2 2 -9 -2 -15 -8z"/>
<path d="M697 873 c-4 -3 -7 -16 -6 -27 0 -19 1 -19 10 3 10 24 8 36 -4 24z"/>
<path d="M900 839 c0 -24 4 -38 10 -34 6 3 10 14 10 23 0 13 2 13 15 -4 14
-18 14 -18 15 7 0 27 -16 49 -37 49 -9 0 -13 -14 -13 -41z"/>
<path d="M826 811 c-16 -16 -26 -35 -24 -42 2 -7 16 2 33 24 34 46 29 57 -9
18z"/>
<path d="M978 778 c3 -28 7 -36 13 -27 13 20 11 45 -4 57 -10 8 -12 2 -9 -30z"/>
<path d="M1370 795 c0 -8 5 -15 10 -15 6 0 10 7 10 15 0 8 -4 15 -10 15 -5 0
-10 -7 -10 -15z"/>
<path d="M2217 705 c-16 -80 -40 -130 -84 -172 -24 -24 -38 -43 -31 -43 6 0
33 22 59 49 52 54 73 107 67 169 l-4 37 -7 -40z"/>
<path d="M1077 682 c-5 -43 0 -54 15 -29 9 18 10 18 24 0 13 -17 13 -17 14 0
0 24 -16 53 -34 60 -10 4 -15 -5 -19 -31z"/>
<path d="M1145 680 c3 -5 11 -10 16 -10 6 0 7 5 4 10 -3 6 -11 10 -16 10 -6 0
-7 -4 -4 -10z"/>
<path d="M1160 621 c0 -5 7 -14 15 -21 12 -10 15 -10 15 3 0 8 -7 17 -15 21
-8 3 -15 2 -15 -3z"/>
<path d="M1105 585 l6 -40 -16 28 c-9 16 -19 26 -22 23 -10 -10 -14 -196 -4
-196 5 0 19 29 31 64 12 36 28 70 36 76 16 14 20 35 4 25 -5 -3 -10 0 -10 7 0
8 -7 23 -15 34 -14 18 -15 16 -10 -21z"/>
<path d="M950 400 c0 -5 5 -10 10 -10 6 0 10 5 10 10 0 6 -4 10 -10 10 -5 0
-10 -4 -10 -10z"/>
</g>
</svg>
